<?xml version="1.0" encoding="UTF-8"?>
<svg width="24px" height="24px" viewBox="0 0 24 24" version="1.1" xmlns="http://www.w3.org/2000/svg" xmlns:xlink="http://www.w3.org/1999/xlink">
    <!-- Generator: Sketch 52.5 (67469) - http://www.bohemiancoding.com/sketch -->
    <title>Icons / System / View</title>
    <desc>Created with Sketch.</desc>
    <defs>
        <path d="M21.6096096,10.3940299 C18.6466466,6.8238806 15.4034034,5 12,5 C8.5965966,5 5.35335335,6.78507463 2.39039039,10.3940299 C1.86986987,11.0149254 1.86986987,11.9462687 2.39039039,12.6059701 C5.35335335,16.1761194 8.5965966,18 12,18 C15.4034034,18 18.6466466,16.1761194 21.6096096,12.6059701 C22.1301301,12.0238806 22.1301301,11.0537313 21.6096096,10.3940299 Z M20.3283283,11.5970149 C17.6856857,14.7791045 14.8828829,16.3701493 12,16.3701493 C9.11711712,16.3701493 6.31431431,14.7791045 3.67167167,11.5970149 C3.63163163,11.519403 3.63163163,11.441791 3.67167167,11.4029851 C6.31431431,8.22089552 9.11711712,6.62985075 12,6.62985075 C14.8828829,6.62985075 17.6856857,8.25970149 20.3283283,11.4029851 C20.3683684,11.441791 20.3683684,11.558209 20.3283283,11.5970149 Z M12,7.40597015 C9.71771772,7.40597015 7.83583584,9.22985075 7.83583584,11.480597 C7.83583584,13.7313433 9.71771772,15.5940299 12,15.5940299 C14.2822823,15.5940299 16.1641642,13.7701493 16.1641642,11.519403 C16.1641642,9.26865672 14.2822823,7.40597015 12,7.40597015 Z M12,13.9641791 C10.5985986,13.9641791 9.47747748,12.8776119 9.47747748,11.519403 C9.47747748,10.161194 10.6386386,9.07462687 12,9.07462687 C13.3613614,9.07462687 14.5225225,10.161194 14.5225225,11.519403 C14.5225225,12.8776119 13.4014014,13.9641791 12,13.9641791 Z" id="path-1"></path>
    </defs>
    <g id="Icons-/-System-/-View" stroke="none" stroke-width="1" fill="none" fill-rule="evenodd">
        <mask id="mask-2" fill="white">
            <use xlink:href="#path-1"></use>
        </mask>
        <use id="View" fill="#000000" fill-rule="nonzero" xlink:href="#path-1"></use>
        <g id="Colours-/-05-Greyscale-/-07-B30" mask="url(#mask-2)" fill="#4D4D4D" fill-rule="nonzero">
            <rect id="07-B30" x="0" y="0" width="24" height="24"></rect>
        </g>
    </g>
</svg>